<?xml version="1.0" encoding="utf-8"?>
<!-- Generator: Adobe Illustrator 27.4.1, SVG Export Plug-In . SVG Version: 6.00 Build 0)  -->
<svg version="1.1" id="Layer_1" xmlns="http://www.w3.org/2000/svg" xmlns:xlink="http://www.w3.org/1999/xlink" x="0px" y="0px"
	 viewBox="0 0 639 523" style="enable-background:new 0 0 639 523;" xml:space="preserve">
<path d="M86.1,132.3c3.5-21.8,14.9-42.7,33.1-58.8c19.5-17.3,46.9-28.4,73.2-26.2c55.8,4.7,96.1,44.6,99.8,95
	c3.5,46.8-28.8,88.9-78.3,102.2c-42.2,11.3-88.1-10.4-112.3-45.4C87.2,178.3,82.5,154.7,86.1,132.3z"/>
<path d="M516.8,151.4c-4.3,50.9-50.7,95.7-102,96.7c-53.1,1-103.3-44-104.2-97.8c-0.7-44.1,31.6-86.2,74-98.2
	C446.6,34.6,522.6,83.3,516.8,151.4z"/>
<path d="M414.4,392.6c-25.1,26.8-45.9,49.1-64.4,68.9c-14.4-10.5-26.3-19.2-42.1-30.7c26.3-23.8,48.9-44.3,75.1-68.1
	c-24.7-21.5-48.1-41.8-72.6-63.2c13.3-12.3,23.4-21.7,36.5-33.8c20.3,22.7,40.6,45.5,62.5,70c22.4-21.5,40.1-39,58.5-55.8
	c5.2-4.8,16-12,17.9-10.5c10.3,8.1,19.5,18,27,28.7c1.4,2-5.8,11-10.4,15.5c-17,16.9-34.5,33.2-53.4,51.2
	c17.4,17.8,33.9,34.7,50.4,51.7c15,15.5,9.5,36.1-12,43c-3.3,1-9.4-2.1-12.3-5C455.7,435.3,436.9,415.7,414.4,392.6z"/>
<path d="M258.1,269.9c9.4,9.9,24,16.4,32,27.1c-5.2,5.6-69.4,67-69.9,66.6c15.1,14.4,31.8,27,46.4,41.8c9,9.2,27.2,22.5,14.9,36
	c-4.2,4.6-16.7,21.2-23.1,21.7c-5.9,0.4-18.5-15.8-23-20c-4.1-3.9-48.5-46-48.7-45.7c-22.6,22.5-44.1,43.9-64.9,64.7
	c-3.1-0.9-4.4-0.9-5.2-1.5c-32.3-24.1-32.4-24.2-4.8-52c10.6-10.7,21.4-21.2,32.6-31.2c8.3-7.4,9.5-13.3,0.4-21.4
	c-16.2-14.5-31.1-30.4-47-45.2c-9.2-8.5-10.2-15-0.3-24.3c21-19.8,20.7-20.4,42.1-0.5c13.5,12.5,26.7,25.3,39.7,38.3
	c6.4,6.4,11.5,7.3,18.1,0.1c18.3-20.1,37-39.9,55.6-59.8C254.7,266.4,256.4,268.1,258.1,269.9z"/>
</svg>
