<?xml version="1.0" encoding="utf-8"?>
<!-- Generator: Adobe Illustrator 27.4.1, SVG Export Plug-In . SVG Version: 6.00 Build 0)  -->
<svg version="1.1" id="Layer_1" xmlns="http://www.w3.org/2000/svg" xmlns:xlink="http://www.w3.org/1999/xlink" x="0px" y="0px"
	 viewBox="0 0 184.1 141.2" style="enable-background:new 0 0 184.1 141.2;" xml:space="preserve">
<path d="M36.9,1.8c0.7,0,1.2,0,1.7,0c2.8,0,5.6,0,8.4,0c0.7,0,1.3,0.1,1.6,1.1c1.8,7.7,3.6,15.4,5.4,23.1c0.2,0.7,0.3,1.4,0.7,2.1
	c0.1-0.4,0.2-0.8,0.3-1.2c2-7.8,4-15.7,5.9-23.5c0.3-1.3,0.9-1.6,2.2-1.6c1.9,0.1,3.9,0.1,5.8,0c1.1,0,1.7,0.4,2,1.5
	c2.1,8.2,4.2,16.4,6.5,24.9c0.3-1.3,0.5-2.4,0.7-3.5c1.8-7.4,3.5-14.7,5.3-22.1c0.1-0.4,0.6-0.9,0.9-0.9c3.5-0.1,7,0,10.7,0
	c-0.5,1.9-1,3.6-1.4,5.2c-3.4,12.1-6.8,24.2-10.1,36.2c-0.2,0.8-0.5,1.1-1.3,1.1c-2.8,0-5.7,0.1-8.5,0c-0.4,0-1.1-0.7-1.3-1.1
	c-2-7.1-4-14.2-6-21.3c-0.1-0.4-0.2-0.8-0.5-1.5c-0.8,3-1.5,5.7-2.2,8.4c-1.3,4.8-2.7,9.6-4,14.4c-0.2,0.9-0.7,1.2-1.6,1.2
	c-2.8-0.1-5.6-0.1-8.4,0c-1,0-1.1-0.6-1.3-1.3C46.7,37,45,30.9,43.3,24.7c-2.1-7.3-4.1-14.7-6.2-22C37,2.5,37,2.3,36.9,1.8z"/>
<path d="M145.1,49.9c7.3,0.2,14.3-0.4,21.3,0.9c9,1.7,15,7.7,16.3,16.8c1.1,7.8-0.8,14.6-6.9,20c-3.5,3.1-7.7,4.5-12.2,4.7
	c-5.8,0.3-11.7,0.2-17.5,0.4c-1.2,0-1.2-0.6-1.2-1.5c0-5.4,0-10.8,0-16.2c0-7.9,0.1-15.7,0.1-23.6C145.1,50.9,145.1,50.5,145.1,49.9
	z M156.4,82.9c1.9,0,3.7,0.1,5.5,0c4.9-0.4,8.2-3.1,9.2-7.5c0.6-2.9,0.6-5.7-0.1-8.6c-1-4.1-4.2-6.8-8.3-7.2c-1.7-0.1-3.3-0.2-5-0.4
	c-1.1-0.2-1.3,0.2-1.3,1.2c0.1,4.7,0.1,9.4,0.1,14.1C156.4,77.2,156.4,79.9,156.4,82.9z"/>
<path d="M117.3,45.5c-10.1,0.2-22.1-6.5-23.1-21c-0.8-12.3,8.9-22.8,21.6-23.2c13.4-0.5,22.6,9.9,23.3,20.6
	C139.9,33.9,130.4,44.9,117.3,45.5z M105.3,23c0.5,2.1,0.8,4.2,1.5,6.1c2.3,6.4,11.3,8.5,16.2,4.6c4.7-3.9,6.3-10.8,3.4-16.8
	c-2-4.1-5.2-6.4-9.9-6.3c-4.7,0-7.8,2.4-9.6,6.5C106,18.9,105.8,21,105.3,23z"/>
<path d="M58.8,141.1c-10,0.9-22.6-7.1-22.9-21.8c-0.2-11.7,9.8-21.9,22-22.2c12.4-0.3,22.6,9.4,22.9,21.8
	C81.1,131.4,71.5,141.1,58.8,141.1z M69.5,118.6c-0.1-3.5-1.5-7.2-5.1-10c-3.5-2.6-9.7-2.4-12.9,0.6c-5.3,4.8-5,12.9-2.4,17.4
	c3,5.1,10.3,6.9,14.7,3.9C67.6,127.8,69.5,124.2,69.5,118.6z"/>
<path d="M43.2,58.8c-3,1.5-5.9,2.9-8.8,4.3c-0.9,0.4-1.2,0-1.6-0.6c-2.7-3.2-6.1-4.4-10.2-3.7c-4.7,0.7-7.7,3.5-8.8,8.1
	c-0.9,3.8-0.8,7.6,0.6,11.3c1.5,4,4.6,6.3,8.8,6.4c2.8,0.1,5.6,0.1,8.1-1.6c2.2-1.5,3.6-3.4,4-6.2c-3.9,0-7.7,0-11.6,0
	c0-2.9,0-5.6,0.1-8.3c0-0.3,1-0.7,1.5-0.7c5.1,0,10.2,0,15.2,0.1c1.9,0,3.8,0,5.7,0C47.1,78.7,42.8,91,28.8,93
	c-8.4,1.2-16.1-0.4-21.6-7.5C1.9,78.7,0.6,71,3.7,62.9c3-7.9,9.1-12.1,17.3-13.4c9-1.4,16.2,1.7,21.9,8.6
	C43.1,58.3,43.1,58.5,43.2,58.8z"/>
<path d="M118.6,49.3c12.4,0.1,22.6,10.1,22.2,22.2c-0.4,13.6-10.4,21.9-22.9,21.8c-12.7-0.1-22-9.7-22-22.4
	C96,59.1,106.5,49.2,118.6,49.3z M118.3,58.7c-4.4-0.2-7.5,2.1-9.6,6c-1.7,3.3-1.7,6.8-0.9,10.4c1.1,5,5.1,8.5,9.9,8.7
	c5,0.2,9.5-2.9,11-7.7c1.3-4.1,0.9-8.1-1.1-11.8C125.7,60.7,122.8,58.6,118.3,58.7z"/>
<path d="M48.7,71.1C48.8,59,59,49.1,71.2,49.3C83.9,49.4,94,59.4,93.6,71.8c-0.4,13-10.3,21.6-22.9,21.4
	C57.6,93.1,48.8,83.1,48.7,71.1z M82.1,71.6c0.1-2.5-0.4-4.9-1.5-7.1c-4-7.7-14.3-7.4-18.2-1.4c-2.7,4.2-3,8.6-1.6,13.2
	c2.3,7.4,10.6,9.9,16.8,5.2C80.9,79,81.8,75.5,82.1,71.6z"/>
<path d="M34,111.8c-0.5-0.5-0.9-1.1-1.4-1.5c-3.4-3.2-7.4-4-11.7-2.6c-4.3,1.4-6.3,4.9-7.1,9c-0.8,3.6-0.1,7.1,2.1,10.2
	c3.8,5.3,11.7,6,16.7,1.4c0.5-0.5,1-1.1,1.5-1.7c0.1,0.1,0.2,0.1,0.4,0.2c0,0.5,0.1,1.1,0.1,1.6c0,2.8,0,5.6,0,8.4
	c0,1.5-0.4,2.3-1.9,3c-7.8,3.5-19.9,1.6-25.9-6.6C-1,122.7,0.9,104.5,15,98.8c5.8-2.4,11.7-2.3,17.6,0c1.2,0.5,1.8,1.2,1.7,2.5
	c-0.1,3.4,0,6.9,0,10.3C34.2,111.7,34.1,111.7,34,111.8z"/>
<path d="M11.5,12c-3.2,0-6.3,0-9.4,0c0-3.4,0-6.6,0-10.1c2.1,0,4.3,0,6.5,0c7.5,0,15,0,22.5-0.1c0.9,0,1.3,0.3,1.3,1.2
	c0,2.5-0.1,4.9,0,7.4c0,1.2-0.4,1.7-1.7,1.6c-2.5-0.1-5.1,0-7.9,0c0,0.8,0,1.5,0,2.2c0,9.5,0,19.1,0.1,28.6c0,1.3-0.3,1.8-1.7,1.7
	c-2.7-0.1-5.5-0.1-8.3-0.1c-1.3,0-1.6-0.5-1.6-1.7c0-9.4,0-18.9,0-28.3C11.5,13.7,11.5,12.9,11.5,12z"/>
<path d="M87.2,141.3c-3.4,0-5.7-2.3-5.7-5.7c0-2.8,2.7-5.7,5.5-5.7c3.3,0,6.1,2.7,6.1,5.7C93,138.9,90.5,141.3,87.2,141.3z"/>
</svg>
